<svg id="Layer_1" data-name="Layer 1" xmlns="http://www.w3.org/2000/svg" viewBox="0 0 841.89 595.28"><defs><style>.cls-1{fill:#1d1d1b;}</style></defs><path class="cls-1" d="M453.08,264.8c-89.25-42.2-128.5-65-128.5-126.61,0-53.28,38-85.82,75.38-85.82,37.52,4.47,75.19,22.69,118.33,47l19.82-45.26c-34.6-15.22-69.84-22.83-107-22.83-38.75,0-66.42,7.61-97.56,30.44-31.82,24.22-58.12,57.48-58.12,103.77,0,74.63,52.54,101,139.61,148.78,86.28,47.39,116.9,66.49,116.9,123.39,0,52.89-45.13,102.35-84.91,104.23-54.66-4.15-115.57-33.51-167.46-60.5L262.28,530.8C304.48,549.48,369.53,564,410.35,564c55.35,0,83.56-17.41,111.24-38.16,31.14-23.53,58-69.78,58-116.13C579.61,337.77,527.11,300.09,453.08,264.8Z"/></svg>